# xmcd CD database file
#
# Track frame offsets:
#	150
#	9649
#	32122
#	49397
#	81007
#	104268
#	132506
#	160682
#	174655
#	197033
#
# Disc length: 2929 seconds
#
# Revision: 1
# Processed by: cddbd v1.5.2PL0 Copyright (c) Steve Scherf et al.
# Submitted via: CDex 1.51
#
DISCID=810b6f0a
DTITLE=Lifescapes - Journey Discover Live Sampler
DYEAR=1900
DGENRE=New Age
TTITLE0=Pilgrim's Journey
TTITLE1=Moonlight Sonata
TTITLE2=Treasure of My Heart
TTITLE3=Enchanted Forest
TTITLE4=I-10 2 Step
TTITLE5=Cherish the Day
TTITLE6=La Luna
TTITLE7=Bach's Air
TTITLE8=Quemadura del Sol
TTITLE9=Manoa Valley
EXTD=
EXTT0=
EXTT1=
EXTT2=
EXTT3=
EXTT4=
EXTT5=
EXTT6=
EXTT7=
EXTT8=
EXTT9=
PLAYORDER=
